<svg xmlns="http://www.w3.org/2000/svg" viewBox="0 0 1080 1080"><path fill="#0c843c" d="M274.577 40.65c-10.704 3.286-21.85 18.743-28.375 39.35-7.774 24.547-11.433 50.339-13.338 94-1.178 27.02-1.163 27.582.882 32.181 4.164 9.367 17.253 15.385 31.805 14.621 16.793-.881 20.989-6.373 29.321-38.373 10.539-40.48 19.839-54.637 43.628-66.415 17.718-8.773 34.693-11.999 63.178-12.008 51.052-.017 78.691 13.743 89.058 44.337l2.764 8.157.285 104.605.285 104.606 2.715 1.233c5.616 2.551 34.186 22.169 46.215 31.734 24.044 19.12 43.808 38.461 63.808 62.445l9.692 11.623.563-147.123c.621-162.421.25-153.329 7.012-172.018 11.275-31.159 37.356-45.619 82.247-45.599 52.955.024 85.878 19.561 103.134 61.201 15.738 37.976 18.736 43.586 25.899 48.473 16.025 10.932 34.585 4.22 40.421-14.617 3.048-9.835 2.407-48.186-1.145-68.563-9.611-55.143-24.032-87.877-41.456-94.1-5.928-2.117-551.683-1.872-558.598.25m518.964 271.572c-2.496 41.347-13.695 63.927-45.084 90.901-21.404 18.393-37.903 39.704-46.707 60.326-3.12 7.309-7.75 24.144-7.75 28.179 0 2.772-.222 2.828-3.8.967-5.392-2.806-11.086-11.743-11.208-17.595-.201-9.551-6.119 22.434-7.957 43-1.791 20.029-1.231 33.132 1.914 44.812l1.097 4.073 14.227-9.048c30.553-19.43 41.263-27.896 52.931-41.837 17.432-20.829 39.808-58.161 49.449-82.5l2.377-6-.621 5.5c-1.681 14.904-9.19 37.508-18.948 57.038-16.902 33.83-44.564 61.545-76.672 76.82-5.367 2.553-9.765 4.958-9.774 5.344-.025 1.162 8.125 6.28 13.82 8.679 28.828 12.145 67.164 1.956 108.77-28.907 5.167-3.834 9.395-7.136 9.395-7.338 0-.203-2.812.284-6.25 1.081-6.856 1.589-12.535 1.114-16.8-1.406l-2.733-1.614 6.066-7.599c34.642-43.389 52.992-100.402 46.864-145.598l-.678-5-2.684 4.5c-2.779 4.658-10.39 12.729-11.221 11.898-.26-.26-.052-3.381.462-6.935 5.673-39.258-7.51-73.838-34.716-91.064l-3.088-1.955-.681 11.278m-517.944 46.854c-18.685 2.568-49.16 13.709-59.409 21.719l-2.312 1.807 9.312 5.031c52.411 28.314 91.76 67.163 113.307 111.867 10.03 20.809 15.502 38.036 21.44 67.5 17.683 87.747 55.471 157.166 105.991 194.717 4.166 3.097 7.799 5.822 8.074 6.056 1.106.943-7.645 7.333-12.897 9.417-8.435 3.348-24.621 3.128-35.56-.482-4.377-1.445-8.086-2.498-8.244-2.34-.576.576 29.659 25.179 46.201 37.595 37.683 28.283 71.846 48.917 100.193 60.514l9.193 3.76.507 5.132c.279 2.822 1.006 10.531 1.617 17.131 2.231 24.107 9.39 53.317 18.626 76 8.958 21.999 30.309 56.822 36.698 59.854 7.02 3.331 14.487.712 17.324-6.078 2.483-5.942 1.24-9.23-8.513-22.531-34.286-46.76-46.363-86.662-50.618-167.245-4.63-87.683-12.697-120.826-45.273-186-21.1-42.214-62.947-107.152-85.988-133.436-6.692-7.634-2.488-4.909 15.234 9.873C544.769 590.889 596.335 680.613 609.044 770c3.831 26.951 4.662 73.601 1.629 91.482-.414 2.44 10.413-2.453 21.617-9.769 62.274-40.667 85.817-128.618 67.112-250.713-3.509-22.903-3.515-22.918-5.068-13.763-3.323 19.595-12.735 36.356-23.499 41.847-5.183 2.644-5.063 2.72-7.686-4.834-3.776-10.875-9.836-24.628-18.396-41.75-49.292-98.598-123.284-171.744-209.056-206.663-6.534-2.661-12.058-4.837-12.276-4.837-.218 0 1.21 2.511 3.173 5.579 7.787 12.174 12.833 24.288 13.26 31.835l.397 7.033-4.376-3.566c-29.552-24.081-70.051-43.473-106.438-50.965-11.479-2.363-42.354-3.419-53.84-1.84m218.156 546.139c-.521 32.505-1.38 37.472-9.242 53.446-8.231 16.721-18.393 23.853-48.862 34.292-31.492 10.789-36.916 15.118-37.027 29.547-.131 16.968 11.699 29.384 33.378 35.031 8.644 2.252 39.196 1.488 60-1.5 54.249-7.791 62.192-8.15 97.682-4.411l6.182.651-9.182-13.954c-26.61-40.437-41.073-78.818-47.274-125.447l-1.68-12.63-7.614-3.591c-7.217-3.404-21.061-10.916-31.261-16.963l-4.647-2.755-.453 28.284" fill-rule="evenodd"/></svg>